<svg xmlns="http://www.w3.org/2000/svg" xmlns:xlink="http://www.w3.org/1999/xlink" width="46" height="39" viewBox="0 0 46 39">
  <defs>
    <clipPath id="clip-path">
      <rect id="Rectangle_392" data-name="Rectangle 392" width="46" height="39" transform="translate(1146 1716)" fill="none" stroke="#707070" stroke-width="1"/>
    </clipPath>
  </defs>
  <g id="Mask_Group_13" data-name="Mask Group 13" transform="translate(-1146 -1716)" clip-path="url(#clip-path)">
    <g id="ghost_1_" data-name="ghost (1)" transform="translate(1149.452 1715.962)">
      <path id="Path_2043" data-name="Path 2043" d="M32.112,18.908v-6.3a12.568,12.568,0,1,0-25.137,0v6.3A23.718,23.718,0,0,1,.762,34.986L0,36.153a10.563,10.563,0,0,1,1.927.86A13.514,13.514,0,0,0,9.15,39.038a14.9,14.9,0,0,0,6.767-1.612,7.935,7.935,0,0,1,7.213,0,14.971,14.971,0,0,0,6.805,1.607,11.968,11.968,0,0,0,6.926-2.075A9.651,9.651,0,0,1,39.1,35.951c-.376-.67-6.984-4.935-6.984-17.043ZM29.936,36.753a12.707,12.707,0,0,1-5.776-1.362,10.365,10.365,0,0,0-4.635-1.109h-.008a10.329,10.329,0,0,0-4.628,1.1A12.634,12.634,0,0,1,9.15,36.753,11.042,11.042,0,0,1,3.522,35.29a25.548,25.548,0,0,0,4.027-7,3.427,3.427,0,0,0,6.281-1.9V20.681H11.545v5.713a1.143,1.143,0,1,1-2.285,0s0-7.29,0-13.787a10.283,10.283,0,0,1,20.566,0c0,6.562,0,13.787,0,13.787a1.143,1.143,0,1,1-2.285,0V20.681H25.256v5.713a3.426,3.426,0,0,0,6.121,2.116,21.171,21.171,0,0,0,3.883,6.761,9.466,9.466,0,0,1-5.324,1.482Zm0,0" fill="#fff"/>
      <path id="Path_2044" data-name="Path 2044" d="M13.83,9.179h2.285v2.285H13.83Zm0,0" fill="#fff"/>
      <path id="Path_2045" data-name="Path 2045" d="M22.971,9.179h2.285v2.285H22.971Zm0,0" fill="#fff"/>
      <path id="Path_2046" data-name="Path 2046" d="M19.543,13.749a3.431,3.431,0,0,0-3.428,3.427v2.361a3.428,3.428,0,0,0,6.856,0V17.177a3.431,3.431,0,0,0-3.428-3.427Zm1.142,5.789a1.143,1.143,0,1,1-2.285,0V17.177a1.143,1.143,0,0,1,2.285,0Zm0,0" fill="#fff"/>
    </g>
  </g>
</svg>
