<svg xmlns="http://www.w3.org/2000/svg" width="43.78" height="40.347" viewBox="0 0 43.78 40.347">
  <path id="Path_2016" data-name="Path 2016" d="M32.6,10.872a7.661,7.661,0,0,0,5.931,2.715c4.092,0,7.422-3.047,7.422-6.793S42.619,0,38.527,0a7.45,7.45,0,0,0-6.906,4.31c-2.766.014-11.379.516-17.636,5.936-4.4,3.811-6.655,9.2-6.709,16.028a5.747,5.747,0,0,0-5.107,5.491v3.019a5.845,5.845,0,0,0,6.08,5.563h28.5a5.846,5.846,0,0,0,6.08-5.563V31.765A5.731,5.731,0,0,0,37.871,26.3c-.076-4.106-2.2-6.89-4.089-9.351A23.366,23.366,0,0,1,31.808,14.1a2.12,2.12,0,0,1,.056-2.541A3.566,3.566,0,0,1,32.6,10.872Zm5.931-8.09a4.214,4.214,0,0,1,4.382,4.012,4.4,4.4,0,0,1-8.764,0A4.214,4.214,0,0,1,38.527,2.782ZM39.79,31.765v3.019a2.923,2.923,0,0,1-3.04,2.781H8.248a2.923,2.923,0,0,1-3.04-2.781V31.765a2.923,2.923,0,0,1,3.04-2.782h28.5A2.922,2.922,0,0,1,39.79,31.765ZM34.829,26.2H10.316c.067-5.985,2-10.669,5.741-13.921C21.129,7.875,28.282,7.2,31.113,7.107a6.252,6.252,0,0,0,.178,1.2c-2,1.13-4.011,3.733-2.2,7.043a25.713,25.713,0,0,0,2.2,3.2C32.978,20.744,34.718,23.018,34.829,26.2Z" transform="translate(-2.168)" fill="#fff"/>
</svg>
