<svg xmlns="http://www.w3.org/2000/svg" xmlns:xlink="http://www.w3.org/1999/xlink" width="41" height="37" viewBox="0 0 41 37">
  <defs>
    <clipPath id="clip-path">
      <rect id="Rectangle_404" data-name="Rectangle 404" width="41" height="37" transform="translate(1512.914 29.574)" fill="#fff" stroke="#707070" stroke-width="1"/>
    </clipPath>
  </defs>
  <g id="Mask_Group_14" data-name="Mask Group 14" transform="translate(-1512.914 -29.574)" clip-path="url(#clip-path)">
    <g id="shopping-cart" transform="translate(1515.735 30)">
      <g id="Group_208" data-name="Group 208" transform="translate(0)">
        <g id="Group_207" data-name="Group 207">
          <g id="Group_206" data-name="Group 206">
            <path id="Path_2067" data-name="Path 2067" d="M17.618,43.207a4.179,4.179,0,1,0,4.3,4.177A4.246,4.246,0,0,0,17.618,43.207Zm0,5.8a1.621,1.621,0,1,1,1.669-1.62A1.646,1.646,0,0,1,17.618,49.005Z" transform="translate(-5.411 -14.989)" fill="#fff"/>
            <path id="Path_2068" data-name="Path 2068" d="M40.853,43.207a4.179,4.179,0,1,0,4.3,4.177A4.246,4.246,0,0,0,40.853,43.207Zm0,5.8a1.62,1.62,0,1,1,1.669-1.62A1.647,1.647,0,0,1,40.853,49Z" transform="translate(-13.015 -14.989)" fill="#fff"/>
            <path id="Path_2069" data-name="Path 2069" d="M11.885,26.941H32.39a1.279,1.279,0,1,0,0-2.558H13L9.233,1.926A1.3,1.3,0,0,0,8.159.872L3.11.019A1.313,1.313,0,0,0,1.586,1.06,1.282,1.282,0,0,0,2.658,2.539l4.126.7,3.8,22.632A1.306,1.306,0,0,0,11.885,26.941Z" transform="translate(-1.566 0)" fill="#fff"/>
          </g>
        </g>
      </g>
      <g id="Group_210" data-name="Group 210" transform="translate(7.465 7.758)">
        <g id="Group_209" data-name="Group 209">
          <path id="Path_2070" data-name="Path 2070" d="M40.51,12.4a1.33,1.33,0,0,0-1.064-.526H12.662v2.558H37.639l-2.71,8.184H14.55v2.558H35.89a1.315,1.315,0,0,0,1.254-.887L40.7,13.549A1.248,1.248,0,0,0,40.51,12.4Z" transform="translate(-12.662 -11.879)" fill="#fff"/>
        </g>
      </g>
    </g>
  </g>
</svg>
