<svg xmlns="http://www.w3.org/2000/svg" xmlns:xlink="http://www.w3.org/1999/xlink" width="327" height="352" viewBox="0 0 327 352">
  <defs>
    <clipPath id="clip-path">
      <rect id="Rectangle_14" data-name="Rectangle 14" width="327" height="352" transform="translate(1395.494 140)" fill="#fff" stroke="#707070" stroke-width="1"/>
    </clipPath>
  </defs>
  <g id="Group_39" data-name="Group 39" transform="translate(-1395.494 -140)">
    <g id="Mask_Group_6" data-name="Mask Group 6" clip-path="url(#clip-path)">
      <path id="barrel" d="M303.031,56.649c-11.168-30.885-22.258-50.6-22.725-51.42L277.344,0H74.656L71.693,5.231c-.467.824-11.558,20.534-22.725,51.419C38.652,85.181,26.354,129.048,26.354,176s12.3,90.819,22.615,119.351c11.167,30.885,22.258,50.6,22.725,51.419L74.656,352H277.344l2.962-5.23c.467-.824,11.557-20.534,22.725-51.419,10.317-28.532,22.615-72.4,22.615-119.351S313.348,85.181,303.031,56.649Zm-74.1,274.726c1.4-6.878,3.2-16.3,5.084-27.729h43.68c-5.142,12.64-9.778,22.236-12.574,27.729Zm-84.768,0c-1.287-6.158-3.165-15.674-5.2-27.729h74.075c-2.032,12.055-3.91,21.572-5.2,27.729Zm-57.283,0c-2.8-5.492-7.444-15.086-12.592-27.729h43.705c1.885,11.427,3.683,20.851,5.084,27.729Zm36.2-310.75c-1.4,6.878-3.2,16.3-5.084,27.729H74.308c5.143-12.64,9.778-22.236,12.574-27.729Zm142.051,0c2.8,5.492,7.445,15.086,12.593,27.729H234.011c-1.885-11.427-3.683-20.851-5.084-27.729Zm32.744,218.4h-55.72c1.7-19.641,2.831-40.97,2.831-63.021s-1.128-43.38-2.831-63.021h55.738A298.93,298.93,0,0,1,305.02,176a298.509,298.509,0,0,1-7.153,63.021Zm-12.419,44H66.523c-2.514-7.263-4.993-15.091-7.3-23.375H292.751c-2.307,8.282-4.788,16.11-7.3,23.375ZM66.551,68.979H285.477c2.514,7.263,4.993,15.091,7.3,23.375H59.248c2.308-8.282,4.788-16.11,7.3-23.375ZM127.646,176c0-21.966,1.188-43.349,2.957-63.021H221.4c1.769,19.672,2.957,41.055,2.957,63.021s-1.188,43.349-2.957,63.021H130.6C128.834,219.348,127.646,197.965,127.646,176ZM213.038,48.354H138.962c2.032-12.055,3.91-21.572,5.2-27.729h63.682C209.129,26.783,211.006,36.3,213.038,48.354ZM54.132,112.979h55.72c-1.7,19.64-2.831,40.97-2.831,63.021s1.128,43.38,2.831,63.021H54.113A298.929,298.929,0,0,1,46.979,176,298.5,298.5,0,0,1,54.132,112.979Z" transform="translate(1382.994 140)" fill="#fff"/>
    </g>
  </g>
</svg>
