<svg xmlns="http://www.w3.org/2000/svg" xmlns:xlink="http://www.w3.org/1999/xlink" width="42" height="40" viewBox="0 0 42 40">
  <defs>
    <clipPath id="clip-path">
      <rect id="Rectangle_388" data-name="Rectangle 388" width="42" height="40" transform="translate(594 1237)" fill="#fff" stroke="#707070" stroke-width="1"/>
    </clipPath>
  </defs>
  <g id="Mask_Group_9" data-name="Mask Group 9" transform="translate(-594 -1237)" clip-path="url(#clip-path)">
    <g id="annual" transform="translate(594 1236)">
      <g id="Group_119" data-name="Group 119">
        <g id="Group_118" data-name="Group 118">
          <path id="Path_2041" data-name="Path 2041" d="M34.462,3.5V1.346H31.231V3.5H22.615V1.346H19.385V3.5H10.769V1.346H7.538V3.5H0V40.654H42V3.5Zm4.308,33.923H3.231V15.885H38.769V37.423Zm0-24.769H3.231V6.731H7.539V8.885h3.231V6.731h8.615V8.885h3.231V6.731h8.615V8.885h3.231V6.731h4.308v5.923Z" fill="#fff"/>
        </g>
      </g>
      <g id="Group_121" data-name="Group 121">
        <g id="Group_120" data-name="Group 120">
          <circle id="Ellipse_20" data-name="Ellipse 20" cx="1.615" cy="1.615" r="1.615" transform="translate(9.154 19.654)" fill="#fff"/>
        </g>
      </g>
      <g id="Group_123" data-name="Group 123">
        <g id="Group_122" data-name="Group 122">
          <circle id="Ellipse_21" data-name="Ellipse 21" cx="1.615" cy="1.615" r="1.615" transform="translate(15.974 19.654)" fill="#fff"/>
        </g>
      </g>
      <g id="Group_125" data-name="Group 125">
        <g id="Group_124" data-name="Group 124">
          <circle id="Ellipse_22" data-name="Ellipse 22" cx="1.615" cy="1.615" r="1.615" transform="translate(22.795 19.654)" fill="#fff"/>
        </g>
      </g>
      <g id="Group_127" data-name="Group 127">
        <g id="Group_126" data-name="Group 126">
          <circle id="Ellipse_23" data-name="Ellipse 23" cx="1.615" cy="1.615" r="1.615" transform="translate(29.615 19.654)" fill="#fff"/>
        </g>
      </g>
      <g id="Group_129" data-name="Group 129">
        <g id="Group_128" data-name="Group 128">
          <circle id="Ellipse_24" data-name="Ellipse 24" cx="1.615" cy="1.615" r="1.615" transform="translate(9.154 25.038)" fill="#fff"/>
        </g>
      </g>
      <g id="Group_131" data-name="Group 131">
        <g id="Group_130" data-name="Group 130">
          <circle id="Ellipse_25" data-name="Ellipse 25" cx="1.615" cy="1.615" r="1.615" transform="translate(15.974 25.038)" fill="#fff"/>
        </g>
      </g>
      <g id="Group_133" data-name="Group 133">
        <g id="Group_132" data-name="Group 132">
          <circle id="Ellipse_26" data-name="Ellipse 26" cx="1.615" cy="1.615" r="1.615" transform="translate(22.795 25.038)" fill="#fff"/>
        </g>
      </g>
      <g id="Group_135" data-name="Group 135">
        <g id="Group_134" data-name="Group 134">
          <circle id="Ellipse_27" data-name="Ellipse 27" cx="1.615" cy="1.615" r="1.615" transform="translate(29.615 25.038)" fill="#fff"/>
        </g>
      </g>
      <g id="Group_137" data-name="Group 137">
        <g id="Group_136" data-name="Group 136">
          <circle id="Ellipse_28" data-name="Ellipse 28" cx="1.615" cy="1.615" r="1.615" transform="translate(9.154 30.423)" fill="#fff"/>
        </g>
      </g>
      <g id="Group_139" data-name="Group 139">
        <g id="Group_138" data-name="Group 138">
          <circle id="Ellipse_29" data-name="Ellipse 29" cx="1.615" cy="1.615" r="1.615" transform="translate(15.974 30.423)" fill="#fff"/>
        </g>
      </g>
      <g id="Group_141" data-name="Group 141">
        <g id="Group_140" data-name="Group 140">
          <circle id="Ellipse_30" data-name="Ellipse 30" cx="1.615" cy="1.615" r="1.615" transform="translate(22.795 30.423)" fill="#fff"/>
        </g>
      </g>
      <g id="Group_143" data-name="Group 143">
        <g id="Group_142" data-name="Group 142">
          <circle id="Ellipse_31" data-name="Ellipse 31" cx="1.615" cy="1.615" r="1.615" transform="translate(29.615 30.423)" fill="#fff"/>
        </g>
      </g>
    </g>
  </g>
</svg>
